<?xml version="1.0" encoding="utf-8"?>
<!-- Generator: Adobe Illustrator 16.0.0, SVG Export Plug-In . SVG Version: 6.00 Build 0)  -->
<!DOCTYPE svg PUBLIC "-//W3C//DTD SVG 1.1//EN" "http://www.w3.org/Graphics/SVG/1.1/DTD/svg11.dtd">
<svg version="1.1" id="Layer_1" xmlns="http://www.w3.org/2000/svg" xmlns:xlink="http://www.w3.org/1999/xlink" x="0px" y="0px"
	 width="24px" height="20px" viewBox="0 0 24 20" enable-background="new 0 0 24 20" xml:space="preserve">
<path fill="#333333" d="M7.986,0.771C2.676,0.771,0,4.578,0,7.752c0,1.921,0.728,3.631,2.288,4.267
	c0.256,0.104,0.484,0.005,0.559-0.28c0.052-0.195,0.176-0.688,0.229-0.896c0.075-0.28,0.047-0.377-0.161-0.622
	C2.465,9.689,2.178,9.003,2.178,8.029c0-2.823,2.111-5.35,5.5-5.35c3,0,4.649,1.833,4.649,4.281c0,3.222-1.425,5.94-3.542,5.94
	c-1.169,0-2.043-0.966-1.763-2.152c0.334-1.414,0.985-2.943,0.985-3.964c0-0.914-0.491-1.677-1.506-1.677
	c-1.195,0-2.156,1.237-2.156,2.892c0,1.055,0.356,1.767,0.356,1.767s-1.223,5.182-1.438,6.089c-0.054,0.233-0.094,0.471-0.126,0.712
	c-0.011,0.078-0.015,0.155-0.023,0.232c-0.013,0.104-0.023,0.218-0.031,0.338c0.001-0.017,0.003-0.032,0.004-0.048
	c-0.02,0.302-0.028,0.603-0.026,0.888c-0.002-0.281,0.006-0.575,0.022-0.84c-0.03,0.356-0.056,0.851-0.02,1.317
	c0.002,0.001,0.004,0.009,0.005,0.016c0.03,0.359,0.1,0.691,0.231,0.906c0.058,0.094,0.126,0.167,0.208,0.21
	c0.205,0.104,0.42,0.003,0.626-0.21c0.118-0.12,0.233-0.274,0.344-0.448c0.397-0.631,0.721-1.495,0.814-1.764
	c0.085-0.216,0.162-0.435,0.222-0.655c0.137-0.496,0.787-3.07,0.787-3.07c0.387,0.738,1.521,1.392,2.729,1.392
	c3.592,0,6.03-3.274,6.03-7.658C15.061,3.859,12.251,0.771,7.986,0.771z M3.069,18.42c-0.004-0.136-0.008-0.283-0.008-0.437
	c0.001,0.149,0.005,0.297,0.01,0.438C3.071,18.421,3.07,18.42,3.069,18.42z"/>
</svg>
