<?xml version="1.0" encoding="utf-8"?>
<!-- Generator: Adobe Illustrator 16.0.0, SVG Export Plug-In . SVG Version: 6.00 Build 0)  -->
<!DOCTYPE svg PUBLIC "-//W3C//DTD SVG 1.1//EN" "http://www.w3.org/Graphics/SVG/1.1/DTD/svg11.dtd">
<svg version="1.1" id="Layer_1" xmlns="http://www.w3.org/2000/svg" xmlns:xlink="http://www.w3.org/1999/xlink" x="0px" y="0px"
	 width="24px" height="20px" viewBox="0 0 24 20" enable-background="new 0 0 24 20" xml:space="preserve">
<path fill="#333333" d="M23.72,3.207c-0.862,0.382-1.79,0.641-2.762,0.757c0.992-0.595,1.756-1.537,2.114-2.66
	c-0.928,0.551-1.957,0.952-3.053,1.167c-0.878-0.935-2.128-1.519-3.511-1.519c-2.656,0-4.81,2.153-4.81,4.809
	c0,0.377,0.043,0.744,0.124,1.095c-3.996-0.2-7.539-2.114-9.911-5.024c-0.413,0.711-0.65,1.537-0.65,2.418
	c0,1.668,0.849,3.141,2.138,4.002C2.612,8.229,1.87,8.011,1.222,7.65v0.061c0,2.33,1.658,4.274,3.857,4.715
	c-0.403,0.109-0.829,0.17-1.267,0.17c-0.31,0-0.612-0.031-0.905-0.088c0.611,1.911,2.388,3.301,4.491,3.341
	c-1.645,1.289-3.718,2.059-5.972,2.059c-0.388,0-0.771-0.023-1.146-0.067C2.408,19.203,4.936,20,7.653,20
	c8.845,0,13.681-7.326,13.681-13.682c0-0.208-0.005-0.415-0.013-0.623C22.259,5.019,23.073,4.172,23.72,3.207z"/>
</svg>
