<?xml version="1.0" encoding="utf-8"?>
<!-- Generator: Adobe Illustrator 16.0.0, SVG Export Plug-In . SVG Version: 6.00 Build 0)  -->
<!DOCTYPE svg PUBLIC "-//W3C//DTD SVG 1.1//EN" "http://www.w3.org/Graphics/SVG/1.1/DTD/svg11.dtd">
<svg version="1.1" id="Layer_1" xmlns="http://www.w3.org/2000/svg" xmlns:xlink="http://www.w3.org/1999/xlink" x="0px" y="0px"
	 width="24px" height="20px" viewBox="0 0 24 20" enable-background="new 0 0 24 20" xml:space="preserve">
<g>
	<path fill="#333333" d="M8.837,1.879C8.99,1.975,9.162,2.113,9.354,2.296c0.184,0.19,0.363,0.425,0.539,0.702
		c0.169,0.262,0.318,0.57,0.449,0.928c0.106,0.356,0.161,0.773,0.161,1.249c-0.015,0.872-0.207,1.57-0.579,2.093
		C9.743,7.522,9.551,7.756,9.347,7.97C9.122,8.184,8.882,8.402,8.628,8.625c-0.146,0.15-0.279,0.321-0.402,0.511
		C8.08,9.334,8.007,9.563,8.007,9.825c0,0.255,0.075,0.464,0.224,0.631c0.127,0.159,0.25,0.298,0.369,0.417l0.827,0.677
		c0.515,0.421,0.966,0.883,1.353,1.392c0.365,0.516,0.555,1.189,0.571,2.021c0,1.182-0.522,2.229-1.565,3.141
		c-1.081,0.945-2.644,1.432-4.685,1.464c-1.708-0.016-2.982-0.38-3.825-1.092C0.426,17.812,0,17.016,0,16.089
		c0-0.45,0.138-0.953,0.416-1.508c0.268-0.553,0.753-1.04,1.457-1.459c0.788-0.451,1.619-0.753,2.488-0.903
		c0.861-0.127,1.575-0.197,2.145-0.214c-0.175-0.23-0.332-0.479-0.47-0.741c-0.16-0.254-0.24-0.563-0.24-0.919
		c0-0.216,0.029-0.396,0.091-0.539C5.94,9.653,5.99,9.515,6.036,9.386C5.759,9.418,5.497,9.434,5.253,9.434
		c-1.3-0.016-2.288-0.425-2.97-1.226C1.57,7.463,1.214,6.594,1.214,5.604c0-1.198,0.505-2.284,1.516-3.259
		c0.692-0.57,1.412-0.943,2.16-1.118C5.63,1.076,6.322,1,6.97,1h4.876L10.34,1.879H8.837z M9.778,15.917
		c0-0.619-0.202-1.157-0.604-1.617c-0.428-0.436-1.095-0.972-2.005-1.606c-0.155-0.017-0.338-0.024-0.547-0.024
		c-0.124-0.015-0.442,0-0.955,0.048c-0.504,0.071-1.021,0.186-1.55,0.345c-0.124,0.048-0.298,0.12-0.522,0.215
		c-0.226,0.104-0.455,0.25-0.688,0.439c-0.226,0.198-0.415,0.445-0.57,0.738c-0.179,0.31-0.268,0.683-0.268,1.118
		c0,0.856,0.388,1.563,1.163,2.118c0.739,0.556,1.747,0.841,3.029,0.857c1.149-0.017,2.026-0.271,2.632-0.762
		C9.482,17.301,9.778,16.679,9.778,15.917z M6.379,8.769c0.643-0.024,1.177-0.255,1.604-0.692c0.207-0.31,0.34-0.627,0.399-0.954
		c0.035-0.326,0.053-0.6,0.053-0.822c0-0.961-0.245-1.932-0.737-2.908C7.466,2.924,7.162,2.542,6.786,2.249
		C6.4,1.972,5.959,1.824,5.46,1.808C4.8,1.824,4.251,2.09,3.812,2.606C3.442,3.147,3.266,3.751,3.282,4.418
		c0,0.882,0.257,1.799,0.773,2.753c0.251,0.445,0.572,0.822,0.969,1.131C5.419,8.614,5.87,8.769,6.379,8.769z"/>
	<polygon fill="#333333" points="18.453,3.664 15.895,3.664 15.895,1.104 14.654,1.104 14.654,3.664 12.096,3.664 12.096,4.904 
		14.654,4.904 14.654,7.462 15.895,7.462 15.895,4.904 18.453,4.904 	"/>
</g>
</svg>
